<?xml version="1.0" standalone="no"?>
<!DOCTYPE svg PUBLIC "-//W3C//DTD SVG 20010904//EN"
 "http://www.w3.org/TR/2001/REC-SVG-20010904/DTD/svg10.dtd">
<svg version="1.0" xmlns="http://www.w3.org/2000/svg"
 width="500.000000pt" height="500.000000pt" viewBox="0 0 500.000000 500.000000"
 preserveAspectRatio="xMidYMid meet">

<g transform="translate(0.000000,500.000000) scale(0.100000,-0.100000)"
fill="#000000" stroke="none">
<path d="M1040 2911 c-15 -28 -26 -274 -16 -354 7 -51 10 -57 30 -57 17 0 28
10 41 40 16 34 17 57 12 163 -7 126 -17 179 -41 212 -13 18 -14 18 -26 -4z"/>
<path d="M1424 2906 c-29 -45 -43 -99 -44 -164 0 -69 17 -115 51 -132 18 -10
20 -20 18 -98 -2 -79 0 -87 17 -90 18 -3 19 3 16 83 l-4 87 37 31 c44 38 54
90 36 180 -23 108 -88 161 -127 103z"/>
<path d="M1188 2861 c-5 -35 -8 -94 -8 -131 0 -56 4 -72 26 -101 23 -31 25
-40 20 -96 -6 -59 -5 -63 14 -63 18 0 20 6 20 61 0 48 5 68 25 97 22 32 25 47
24 122 0 47 -4 105 -8 130 -8 40 -9 35 -10 -42 -1 -117 -20 -126 -23 -11 -1
48 -3 68 -5 43 -10 -140 -24 -163 -34 -57 l-6 62 -1 -67 c-3 -101 -21 -82 -24
25 l-3 92 -7 -64z"/>
<path d="M1021 2261 c-7 -55 -10 -113 -6 -130 7 -34 38 -49 62 -30 13 12 15
30 9 122 -8 124 -12 137 -35 137 -15 0 -20 -17 -30 -99z"/>
<path d="M1204 2274 c-9 -62 3 -165 21 -184 40 -39 69 35 58 148 -5 55 -9 65
-30 73 -38 14 -41 12 -49 -37z"/>
<path d="M2063 2240 c0 -25 2 -35 4 -22 2 12 2 32 0 45 -2 12 -4 2 -4 -23z"/>
<path d="M2670 2262 c0 -15 4 -20 16 -15 9 3 12 9 7 12 -4 3 -11 10 -15 15 -5
5 -8 0 -8 -12z"/>
<path d="M3053 2245 c0 -22 2 -30 4 -17 2 12 2 30 0 40 -3 9 -5 -1 -4 -23z"/>
<path d="M3383 2240 c0 -25 2 -35 4 -22 2 12 2 32 0 45 -2 12 -4 2 -4 -23z"/>
<path d="M1425 2226 c-14 -89 15 -163 53 -139 21 13 31 67 24 133 -4 49 -5 50
-38 50 -31 0 -33 -2 -39 -44z"/>
<path d="M3786 2251 c-10 -11 -16 -28 -13 -38 4 -17 5 -17 6 1 0 11 8 28 18
38 9 10 14 18 11 18 -3 0 -13 -9 -22 -19z"/>
<path d="M2188 2253 c7 -3 16 -2 19 1 4 3 -2 6 -13 5 -11 0 -14 -3 -6 -6z"/>
<path d="M3237 2253 c-9 -9 -9 -53 1 -53 4 0 7 14 7 30 0 17 0 30 -1 30 0 0
-4 -3 -7 -7z"/>
<path d="M2162 2225 c0 -16 2 -22 5 -12 2 9 2 23 0 30 -3 6 -5 -1 -5 -18z"/>
<path d="M2222 2225 c0 -16 2 -22 5 -12 2 9 2 23 0 30 -3 6 -5 -1 -5 -18z"/>
<path d="M2252 2225 c0 -16 2 -22 5 -12 2 9 2 23 0 30 -3 6 -5 -1 -5 -18z"/>
<path d="M2335 2239 c-4 -6 -5 -12 -2 -15 2 -3 7 2 10 11 7 17 1 20 -8 4z"/>
<path d="M2582 2230 c0 -14 2 -19 5 -12 2 6 2 18 0 25 -3 6 -5 1 -5 -13z"/>
<path d="M3412 2225 c0 -16 2 -22 5 -12 2 9 2 23 0 30 -3 6 -5 -1 -5 -18z"/>
<path d="M3922 2230 c0 -14 2 -19 5 -12 2 6 2 18 0 25 -3 6 -5 1 -5 -13z"/>
<path d="M3887 2221 c-4 -17 -3 -21 5 -13 5 5 8 16 6 23 -3 8 -7 3 -11 -10z"/>
<path d="M2130 2221 c0 -5 -10 -12 -22 -14 -20 -4 -19 -4 5 -6 18 -1 27 4 27
14 0 8 -2 15 -5 15 -3 0 -5 -4 -5 -9z"/>
</g>
</svg>
